<svg width="75" height="69" viewBox="0 0 75 69" fill="none" xmlns="http://www.w3.org/2000/svg">
<path d="M45.5339 61.4584L45.5339 61.4585C44.4092 62.3503 42.2578 63.9681 40.376 65.3714C39.4375 66.0712 38.5701 66.7147 37.9371 67.1833C37.7751 67.3033 37.6285 67.4118 37.5 67.5068C37.3715 67.4118 37.2249 67.3033 37.0629 67.1833C36.43 66.7147 35.5625 66.0712 34.624 65.3714C32.7422 63.9681 30.5908 62.3503 29.4662 61.4585L29.4661 61.4584C25.3934 58.2299 20.4278 54.0957 15.8738 49.765C11.3063 45.4215 7.20892 40.9326 4.82295 36.9945L4.82258 36.9939C1.28209 31.1595 0.126642 23.9191 1.66848 17.1898L1.66857 17.1899L1.67142 17.1766C4.93742 1.97948 22.97 -4.13794 34.1474 5.96678L34.1499 5.96898C34.7725 6.52814 35.3524 7.15335 35.9851 7.83692C36.2405 8.11292 36.5041 8.39766 36.7762 8.68305L37.5 9.44239L38.2238 8.68305C38.4958 8.39772 38.7594 8.1131 39.0148 7.83709C39.6475 7.15344 40.2275 6.52818 40.8502 5.96899L40.8526 5.96678C52.0301 -4.13794 70.0626 1.97948 73.3286 17.1766L73.3285 17.1766L73.3315 17.1898C74.8734 23.9191 73.7178 31.1595 70.1775 36.9939L70.1771 36.9945C67.7911 40.9326 63.6937 45.4215 59.1262 49.765C54.5722 54.0957 49.6066 58.2299 45.5339 61.4584Z" fill="#624455" stroke="#624455" stroke-width="2"/>
</svg>
