<svg width="44" height="57" viewBox="0 0 44 57" fill="none" xmlns="http://www.w3.org/2000/svg">
<path d="M42.646 2.42754L25.7028 34.1248L22.831 34.125L40.2029 1.10045L41.6369 1.3651L42.646 2.42754Z" stroke="#624455"/>
<path d="M25.6326 54.665L25.6325 54.665L25.2199 54.9644V55.4743V55.6243H12.147V55.4743V54.9643L11.7343 54.6649L11.7343 54.6649L11.7342 54.6649L11.7338 54.6646L11.731 54.6626L11.7185 54.6534L11.6665 54.6152C11.6202 54.5811 11.5511 54.5297 11.4617 54.4625C11.2829 54.3281 11.0234 54.1304 10.7042 53.8797C10.0652 53.3779 9.18991 52.6665 8.24558 51.8286C6.32914 50.1281 4.23147 47.996 3.17583 46.0796C2.0119 43.9666 1.45161 40.9057 1.19751 38.2712C1.0723 36.9729 1.02436 35.8136 1.00782 34.9792C1.00532 34.8534 1.00354 34.7352 1.00232 34.625H37.2203C37.2157 34.7273 37.2104 34.8363 37.2043 34.9516C37.1599 35.788 37.0717 36.9497 36.897 38.2489C36.5425 40.8849 35.8496 43.9407 34.5459 46.0333C33.3488 47.955 31.1544 50.1007 29.1902 51.8065C28.2201 52.6489 27.3279 53.3657 26.6784 53.8716C26.3539 54.1244 26.0906 54.3241 25.9093 54.4599C25.8187 54.5278 25.7486 54.5798 25.7016 54.6144L25.6488 54.6532L25.636 54.6625L25.6331 54.6646L25.6326 54.665L25.6326 54.665Z" stroke="#624455" stroke-width="2"/>
</svg>
