<svg width="100" height="100" viewBox="0 0 100 100" fill="none" xmlns="http://www.w3.org/2000/svg">
<path d="M45.6003 23.7339C46.5047 18.8552 53.4953 18.8552 54.3997 23.7339V23.7339C55.0466 27.2238 59.3047 28.6073 61.8794 26.1642V26.1642C65.4787 22.7488 71.1342 26.8578 68.9982 31.3364V31.3364C67.4703 34.54 70.1019 38.1621 73.621 37.699V37.699C78.5404 37.0515 80.7006 43.6999 76.3401 46.0677V46.0677C73.2209 47.7614 73.2209 52.2386 76.3401 53.9323V53.9323C80.7006 56.3001 78.5404 62.9485 73.621 62.301V62.301C70.1019 61.8379 67.4703 65.46 68.9982 68.6636V68.6636C71.1342 73.1422 65.4787 77.2512 61.8794 73.8358V73.8358C59.3047 71.3927 55.0466 72.7762 54.3997 76.2661V76.2661C53.4953 81.1448 46.5047 81.1448 45.6003 76.2661V76.2661C44.9534 72.7762 40.6953 71.3927 38.1206 73.8358V73.8358C34.5213 77.2512 28.8658 73.1422 31.0018 68.6637V68.6637C32.5297 65.46 29.8981 61.8379 26.379 62.301V62.301C21.4596 62.9485 19.2994 56.3001 23.6599 53.9323V53.9323C26.7791 52.2386 26.7791 47.7614 23.6599 46.0677V46.0677C19.2994 43.6999 21.4596 37.0515 26.379 37.699V37.699C29.8981 38.1621 32.5297 34.54 31.0018 31.3364V31.3364C28.8658 26.8578 34.5213 22.7488 38.1206 26.1642V26.1642C40.6953 28.6073 44.9534 27.2238 45.6003 23.7339V23.7339Z" fill="#F3F3F3"/>
<circle cx="50" cy="50" r="15" fill="#624455"/>
</svg>
