<svg width="1922" height="45" viewBox="0 0 1922 45" fill="none" xmlns="http://www.w3.org/2000/svg">
<path d="M46.3604 9.85746C46.4634 9.31486 46.9865 8.95948 47.5289 9.06368L50.4354 9.62212C50.9777 9.72632 51.3339 10.2507 51.2309 10.7933L50.8593 12.751L47.888 17.767L46.9139 17.5798L45.9888 11.8152L46.3604 9.85746Z" fill="#624455"/>
<g filter="url(#filter0_f_423_23211)">
<path d="M45.9951 11.8157L50.8656 12.7515L51.9186 17.8424L47.8453 23.345L44.9229 22.7835L43.1516 16.1579L45.9951 11.8157Z" fill="#624455"/>
</g>
<path d="M75.7816 14.7714C75.8591 14.2245 76.3651 13.8448 76.9117 13.9232L79.8409 14.3433C80.3876 14.4217 80.768 14.9285 80.6905 15.4754L80.411 17.4486L77.6777 22.5998L76.6959 22.459L75.502 16.7446L75.7816 14.7714Z" fill="#624455"/>
<g filter="url(#filter1_f_423_23211)">
<path d="M75.5026 16.7464L80.4116 17.4504L81.7017 22.4857L77.8904 28.1753L74.9451 27.7529L72.8656 21.2186L75.5026 16.7464Z" fill="#624455"/>
</g>
<path d="M108.682 18.6403C108.767 18.0947 109.278 17.7224 109.824 17.8088L112.747 18.2716C113.292 18.358 113.665 18.8704 113.58 19.416L113.272 21.3849L110.465 26.4956L109.486 26.3405L108.374 20.6092L108.682 18.6403Z" fill="#624455"/>
<g filter="url(#filter2_f_423_23211)">
<path d="M108.373 20.6111L113.272 21.3867L114.49 26.4404L110.597 32.0736L107.658 31.6082L105.673 25.0441L108.373 20.6111Z" fill="#624455"/>
</g>
<path d="M142.163 22.1823C142.22 21.6329 142.711 21.2338 143.26 21.2909L146.203 21.5969C146.753 21.654 147.152 22.1457 147.096 22.6951L146.892 24.6778L144.359 29.9313L143.372 29.8287L141.96 24.165L142.163 22.1823Z" fill="#624455"/>
<g filter="url(#filter3_f_423_23211)">
<path d="M141.957 24.1622L146.89 24.675L148.372 29.6564L144.782 35.4897L141.822 35.182L139.494 28.7334L141.957 24.1622Z" fill="#624455"/>
</g>
<path d="M173.238 25.6986C173.309 25.151 173.811 24.7656 174.359 24.8378L177.292 25.2249C177.84 25.2971 178.226 25.7997 178.154 26.3473L177.897 28.3236L175.221 33.5053L174.238 33.3755L172.98 27.6749L173.238 25.6986Z" fill="#624455"/>
<g filter="url(#filter4_f_423_23211)">
<path d="M172.974 27.6774L177.891 28.3261L179.237 33.3466L175.489 39.0787L172.539 38.6895L170.387 32.179L172.974 27.6774Z" fill="#624455"/>
</g>
<path d="M209.613 28.4957C209.628 27.9436 210.088 27.5084 210.64 27.5236L213.598 27.6051C214.15 27.6203 214.585 28.0802 214.57 28.6322L214.516 30.6248L212.384 36.0559L211.393 36.0286L209.559 30.4883L209.613 28.4957Z" fill="#624455"/>
<g filter="url(#filter5_f_423_23211)">
<path d="M209.561 30.4882L214.518 30.6247L216.37 35.4793L213.228 41.5688L210.254 41.4869L207.448 35.2336L209.561 30.4882Z" fill="#624455"/>
</g>
<path d="M250.519 28.8788C250.513 28.3266 250.955 27.8737 251.508 27.8673L254.466 27.833C255.018 27.8266 255.471 28.2691 255.478 28.8213L255.5 30.8145L253.58 36.3249L252.588 36.3364L250.542 30.872L250.519 28.8788Z" fill="#624455"/>
<g filter="url(#filter6_f_423_23211)">
<path d="M250.538 30.8715L255.496 30.814L257.535 35.5925L254.63 41.8002L251.655 41.8348L248.61 35.696L250.538 30.8715Z" fill="#624455"/>
</g>
<path d="M293.006 27.0029C292.981 26.4512 293.408 25.9834 293.96 25.958L296.915 25.8222C297.467 25.7969 297.935 26.2236 297.96 26.7753L298.05 28.7665L296.318 34.3396L295.327 34.3851L293.097 28.9941L293.006 27.0029Z" fill="#624455"/>
<g filter="url(#filter7_f_423_23211)">
<path d="M293.091 28.9949L298.044 28.7673L300.243 33.4731L297.551 39.7769L294.579 39.9134L291.327 33.8827L293.091 28.9949Z" fill="#624455"/>
</g>
<path d="M345.262 22.573C345.173 22.0279 345.543 21.5133 346.088 21.4238L349.009 20.9439C349.553 20.8543 350.067 21.2236 350.156 21.7688L350.475 23.7359L349.397 29.4735L348.418 29.6344L345.581 24.5401L345.262 22.573Z" fill="#624455"/>
<g filter="url(#filter8_f_423_23211)">
<path d="M345.575 24.5377L350.468 23.7335L353.195 28.1507L351.248 34.7262L348.312 35.2088L344.387 29.5983L345.575 24.5377Z" fill="#624455"/>
</g>
<path d="M18.3057 5.89935C18.4001 5.35519 18.9175 4.9916 19.4615 5.08724L22.3764 5.5998C22.9204 5.69544 23.2848 6.21411 23.1904 6.75827L22.8499 8.72158L19.9584 13.7838L18.9815 13.612L17.9652 7.86266L18.3057 5.89935Z" fill="#624455"/>
<g filter="url(#filter9_f_423_23211)">
<path d="M17.9695 7.8631L22.8543 8.72201L23.9878 13.7956L20.0022 19.3618L17.0713 18.8464L15.1952 12.2496L17.9695 7.8631Z" fill="#624455"/>
</g>
<path d="M386.913 17.6494C386.819 17.1052 387.183 16.5868 387.727 16.4915L390.642 15.9807C391.186 15.8854 391.704 16.2492 391.798 16.7934L392.138 18.757L391.12 24.5057L390.143 24.6769L387.253 19.613L386.913 17.6494Z" fill="#624455"/>
<g filter="url(#filter10_f_423_23211)">
<path d="M387.251 19.6146L392.136 18.7587L394.909 23.1468L393.031 29.7426L390.1 30.2561L386.116 24.6876L387.251 19.6146Z" fill="#624455"/>
</g>
<path d="M428.573 11.6956C428.477 11.1518 428.839 10.6318 429.383 10.5341L432.296 10.0109C432.839 9.91322 433.358 10.2749 433.455 10.8187L433.803 12.7808L432.809 18.5338L431.833 18.7092L428.921 13.6576L428.573 11.6956Z" fill="#624455"/>
<g filter="url(#filter11_f_423_23211)">
<path d="M428.921 13.6571L433.803 12.7802L436.594 17.1564L434.744 23.7602L431.815 24.2863L427.808 18.7348L428.921 13.6571Z" fill="#624455"/>
</g>
<path d="M467.27 4.93145C467.155 4.39114 467.5 3.85933 468.04 3.74363L470.935 3.12357C471.475 3.00787 472.005 3.35209 472.119 3.8924L472.532 5.84174L471.728 11.6248L470.758 11.8326L467.682 6.88079L467.27 4.93145Z" fill="#624455"/>
<g filter="url(#filter12_f_423_23211)">
<path d="M467.682 6.87735L472.532 5.8383L475.466 10.1191L473.834 16.7809L470.924 17.4043L466.736 11.9894L467.682 6.87735Z" fill="#624455"/>
</g>
<path d="M587.132 20.765C587.219 20.2195 587.731 19.8484 588.276 19.9359L591.198 20.4053C591.744 20.4929 592.115 21.0061 592.029 21.5515L591.717 23.5198L588.898 28.6242L587.919 28.4669L586.82 22.7332L587.132 20.765Z" fill="#624455"/>
<g filter="url(#filter13_f_423_23211)">
<path d="M586.818 22.7326L591.715 23.5192L592.921 28.5755L589.015 34.2L586.077 33.7281L584.107 27.1597L586.818 22.7326Z" fill="#624455"/>
</g>
<path d="M504.074 5.83198C504.171 5.28835 504.691 4.92757 505.234 5.02614L508.146 5.55438C508.689 5.65296 509.051 6.17356 508.953 6.71719L508.602 8.67868L505.682 13.7252L504.706 13.5482L503.722 7.79347L504.074 5.83198Z" fill="#624455"/>
<g filter="url(#filter14_f_423_23211)">
<path d="M503.718 7.79159L508.597 8.6768L509.703 13.7565L505.686 19.3011L502.758 18.7699L500.919 12.1631L503.718 7.79159Z" fill="#624455"/>
</g>
<path d="M550.408 14.7692C550.493 14.2236 551.005 13.8513 551.55 13.9376L554.473 14.4004C555.019 14.4868 555.392 14.9991 555.306 15.5448L554.998 17.5137L552.191 22.6245L551.211 22.4694L550.1 16.7382L550.408 14.7692Z" fill="#624455"/>
<g filter="url(#filter15_f_423_23211)">
<path d="M550.1 16.7399L554.998 17.5154L556.216 22.569L552.323 28.2024L549.384 27.737L547.399 21.1731L550.1 16.7399Z" fill="#624455"/>
</g>
<path d="M627.489 25.774C627.555 25.2257 628.054 24.8359 628.602 24.9033L631.539 25.2643C632.087 25.3317 632.477 25.8307 632.411 26.379L632.171 28.3575L629.54 33.5627L628.556 33.4417L627.249 27.7525L627.489 25.774Z" fill="#624455"/>
<g filter="url(#filter16_f_423_23211)">
<path d="M627.25 27.7537L632.172 28.3588L633.562 33.3671L629.865 39.1322L626.911 38.7692L624.702 32.278L627.25 27.7537Z" fill="#624455"/>
</g>
<path d="M667.286 29.5721C667.322 29.021 667.798 28.604 668.349 28.6407L671.302 28.8374C671.853 28.8741 672.27 29.3506 672.234 29.9017L672.103 31.8906L669.763 37.2345L668.774 37.1686L667.155 31.561L667.286 29.5721Z" fill="#624455"/>
<g filter="url(#filter17_f_423_23211)">
<path d="M667.159 31.5615L672.107 31.8912L673.77 36.8143L670.396 42.7767L667.428 42.579L664.864 36.221L667.159 31.5615Z" fill="#624455"/>
</g>
<path d="M716.056 29.6635C716.038 29.1115 716.471 28.6495 717.023 28.6316L719.98 28.5354C720.532 28.5174 720.994 28.9504 721.012 29.5024L721.076 31.4946L719.269 37.044L718.278 37.0762L716.12 31.6558L716.056 29.6635Z" fill="#624455"/>
<g filter="url(#filter18_f_423_23211)">
<path d="M716.115 31.6582L721.071 31.497L723.208 36.2318L720.432 42.499L717.459 42.5957L714.287 36.5219L716.115 31.6582Z" fill="#624455"/>
</g>
<path d="M755.744 27.8382C755.713 27.2868 756.134 26.8142 756.686 26.7826L759.64 26.6133C760.191 26.5817 760.663 27.0031 760.695 27.5545L760.807 29.5446L759.137 35.1369L758.147 35.1937L755.857 29.8283L755.744 27.8382Z" fill="#624455"/>
<g filter="url(#filter19_f_423_23211)">
<path d="M755.863 29.8279L760.814 29.5442L763.065 34.2247L760.444 40.5586L757.474 40.7289L754.154 34.7354L755.863 29.8279Z" fill="#624455"/>
</g>
<path d="M797.456 25.3433C797.385 24.7956 797.772 24.2935 798.32 24.222L801.254 23.8384C801.801 23.7668 802.303 24.1528 802.373 24.7006L802.629 26.6772L801.364 32.3763L800.381 32.5048L797.711 27.3199L797.456 25.3433Z" fill="#624455"/>
<g filter="url(#filter20_f_423_23211)">
<path d="M797.709 27.321L802.626 26.6783L805.208 31.1829L803.048 37.6908L800.098 38.0765L796.357 32.3399L797.709 27.321Z" fill="#624455"/>
</g>
<path d="M844.073 19.4623C843.994 18.9157 844.373 18.4076 844.919 18.3274L847.847 17.8975C848.393 17.8172 848.901 18.1953 848.98 18.7418L849.266 20.7141L848.091 26.4325L847.11 26.5766L844.359 21.4346L844.073 19.4623Z" fill="#624455"/>
<g filter="url(#filter21_f_423_23211)">
<path d="M844.361 21.4345L849.268 20.714L851.92 25.1773L849.862 31.7185L846.918 32.1508L843.088 26.4741L844.361 21.4345Z" fill="#624455"/>
</g>
<path d="M892.665 13.4625C892.587 12.9158 892.967 12.4084 893.513 12.3291L896.442 11.9044C896.988 11.8252 897.495 12.2041 897.573 12.7508L897.856 14.7236L896.671 20.4399L895.689 20.5822L892.948 15.4353L892.665 13.4625Z" fill="#624455"/>
<g filter="url(#filter22_f_423_23211)">
<path d="M892.948 15.434L897.855 14.7223L900.499 19.1902L898.43 25.7278L895.485 26.1549L891.665 20.4714L892.948 15.434Z" fill="#624455"/>
</g>
<path d="M933.353 6.69967C933.257 6.15576 933.62 5.63622 934.164 5.53924L937.078 5.01953C937.621 4.92255 938.14 5.28484 938.236 5.82875L938.581 7.79127L937.581 13.5431L936.604 13.7173L933.699 8.66219L933.353 6.69967Z" fill="#624455"/>
<g filter="url(#filter23_f_423_23211)">
<path d="M933.695 8.66335L938.578 7.79243L941.364 12.1721L939.505 18.7735L936.576 19.2961L932.575 13.7397L933.695 8.66335Z" fill="#624455"/>
</g>
<path d="M974.511 4.0286C974.669 3.49935 975.225 3.1997 975.754 3.35931L978.589 4.21507C979.118 4.37468 979.418 4.93311 979.26 5.46236L978.691 7.3711L975.224 12.0538L974.274 11.7671L973.942 5.93734L974.511 4.0286Z" fill="#624455"/>
<g filter="url(#filter24_f_423_23211)">
<path d="M973.947 5.93678L978.696 7.37054L979.224 12.5432L974.611 17.5962L971.761 16.736L970.675 9.96247L973.947 5.93678Z" fill="#624455"/>
</g>
<path d="M1006.41 9.7558C1006.48 9.20894 1006.99 8.829 1007.54 8.90717L1010.47 9.32602C1011.01 9.40419 1011.39 9.91088 1011.32 10.4577L1011.04 12.4311L1008.31 17.5835L1007.32 17.4431L1006.13 11.7292L1006.41 9.7558Z" fill="#624455"/>
<g filter="url(#filter25_f_423_23211)">
<path d="M1006.13 11.73L1011.04 12.4319L1012.33 17.4667L1008.52 23.1578L1005.57 22.7367L1003.49 16.2032L1006.13 11.73Z" fill="#624455"/>
</g>
<path d="M1038.81 15.0031C1038.9 14.4577 1039.41 14.087 1039.96 14.1752L1042.88 14.6472C1043.42 14.7353 1043.79 15.2489 1043.71 15.7943L1043.39 17.7622L1040.57 22.864L1039.59 22.7058L1038.5 16.9711L1038.81 15.0031Z" fill="#624455"/>
<g filter="url(#filter26_f_423_23211)">
<path d="M1038.5 16.9727L1043.39 17.7638L1044.59 22.8213L1040.68 28.4422L1037.75 27.9675L1035.78 21.3973L1038.5 16.9727Z" fill="#624455"/>
</g>
<path d="M1086.13 21.6364C1086.19 21.0864 1086.67 20.6825 1087.22 20.7341L1090.17 21.0106C1090.72 21.0622 1091.12 21.5499 1091.07 22.0998L1090.89 24.0844L1088.41 29.3631L1087.42 29.2704L1085.95 23.621L1086.13 21.6364Z" fill="#624455"/>
<g filter="url(#filter27_f_423_23211)">
<path d="M1085.95 23.6229L1090.89 24.0863L1092.42 29.0527L1088.89 34.9216L1085.93 34.6436L1083.53 28.2185L1085.95 23.6229Z" fill="#624455"/>
</g>
<path d="M1125.46 25.5799C1125.49 25.0288 1125.97 24.6118 1126.52 24.6485L1129.47 24.8453C1130.02 24.8821 1130.44 25.3586 1130.41 25.9097L1130.27 27.8986L1127.93 33.2424L1126.95 33.1764L1125.33 27.5688L1125.46 25.5799Z" fill="#624455"/>
<g filter="url(#filter28_f_423_23211)">
<path d="M1125.33 27.5694L1130.28 27.8992L1131.94 32.8224L1128.57 38.7847L1125.6 38.5868L1123.04 32.2288L1125.33 27.5694Z" fill="#624455"/>
</g>
<path d="M1170.62 29.3343C1170.65 28.7829 1171.12 28.3616 1171.67 28.3933L1174.62 28.563C1175.18 28.5947 1175.6 29.0674 1175.57 29.6187L1175.45 31.6088L1173.16 36.9738L1172.17 36.917L1170.5 31.3244L1170.62 29.3343Z" fill="#624455"/>
<g filter="url(#filter29_f_423_23211)">
<path d="M1170.5 31.3247L1175.45 31.6091L1177.16 36.5168L1173.84 42.5099L1170.87 42.3392L1168.25 36.0049L1170.5 31.3247Z" fill="#624455"/>
</g>
<path d="M1211.21 30.6562C1211.2 30.104 1211.65 29.6547 1212.2 29.6529L1215.16 29.6428C1215.71 29.6409 1216.16 30.0871 1216.17 30.6394L1216.17 32.6327L1214.21 38.1271L1213.22 38.1305L1211.21 32.6495L1211.21 30.6562Z" fill="#624455"/>
<g filter="url(#filter30_f_423_23211)">
<path d="M1211.21 32.6495L1216.17 32.6327L1218.17 37.4277L1215.21 43.6114L1212.24 43.6215L1209.24 37.458L1211.21 32.6495Z" fill="#624455"/>
</g>
<path d="M1251.6 30.7801C1251.57 30.2284 1251.99 29.7591 1252.55 29.7319L1255.5 29.5858C1256.05 29.5585 1256.52 29.9836 1256.55 30.5352L1256.65 32.5261L1254.93 38.1052L1253.94 38.1541L1251.69 32.771L1251.6 30.7801Z" fill="#624455"/>
<g filter="url(#filter31_f_423_23211)">
<path d="M1251.69 32.7692L1256.64 32.5244L1258.86 37.2224L1256.19 43.5356L1253.22 43.6825L1249.95 37.6632L1251.69 32.7692Z" fill="#624455"/>
</g>
<path d="M1293.3 27.2011C1293.24 26.6521 1293.63 26.1579 1294.18 26.0973L1297.12 25.7728C1297.67 25.7122 1298.17 26.1081 1298.22 26.6572L1298.44 28.6385L1297.06 34.3111L1296.08 34.4199L1293.51 29.1825L1293.3 27.2011Z" fill="#624455"/>
<g filter="url(#filter32_f_423_23211)">
<path d="M1293.52 29.1848L1298.45 28.6408L1300.94 33.1963L1298.65 39.6596L1295.69 39.986L1292.07 34.1755L1293.52 29.1848Z" fill="#624455"/>
</g>
<path d="M1333.05 22.1643C1332.92 21.6291 1333.24 21.0833 1333.77 20.9452L1336.64 20.2047C1337.17 20.0666 1337.72 20.3884 1337.85 20.9235L1338.35 22.8539L1337.78 28.6655L1336.82 28.9136L1333.54 24.0946L1333.05 22.1643Z" fill="#624455"/>
<g filter="url(#filter33_f_423_23211)">
<path d="M1333.55 24.0936L1338.35 22.8528L1341.46 27.0074L1340.1 33.7316L1337.22 34.476L1332.81 29.2407L1333.55 24.0936Z" fill="#624455"/>
</g>
<path d="M1392.53 10.8931C1392.42 10.3524 1392.77 9.82171 1393.31 9.70779L1396.2 9.09727C1396.74 8.98336 1397.27 9.32932 1397.39 9.87L1397.79 11.8207L1396.97 17.601L1396 17.8056L1392.94 12.8438L1392.53 10.8931Z" fill="#624455"/>
<g filter="url(#filter34_f_423_23211)">
<path d="M1392.94 12.8447L1397.79 11.8216L1400.71 16.1121L1399.06 22.7684L1396.15 23.3823L1391.98 17.9536L1392.94 12.8447Z" fill="#624455"/>
</g>
<path d="M1445.77 3.36968C1445.89 2.82897 1446.41 2.48284 1446.96 2.5966L1449.85 3.20623C1450.39 3.31999 1450.74 3.85054 1450.63 4.39126L1450.22 6.34208L1447.16 11.3049L1446.19 11.1006L1445.37 5.3205L1445.77 3.36968Z" fill="#624455"/>
<g filter="url(#filter35_f_423_23211)">
<path d="M1445.37 5.31879L1450.22 6.34036L1451.19 11.449L1447.02 16.8789L1444.11 16.266L1442.45 9.61017L1445.37 5.31879Z" fill="#624455"/>
</g>
<path d="M1487.49 10.7663C1487.57 10.2201 1488.08 9.84455 1488.63 9.92745L1491.56 10.3717C1492.1 10.4546 1492.48 10.9645 1492.4 11.5107L1492.1 13.4816L1489.32 18.6101L1488.34 18.4612L1487.2 12.7371L1487.49 10.7663Z" fill="#624455"/>
<g filter="url(#filter36_f_423_23211)">
<path d="M1487.2 12.7392L1492.1 13.4836L1493.35 18.5294L1489.49 24.1873L1486.55 23.7407L1484.52 17.1894L1487.2 12.7392Z" fill="#624455"/>
</g>
<path d="M1538.08 17.7506C1538.16 17.2045 1538.67 16.8291 1539.22 16.9123L1542.14 17.3578C1542.69 17.441 1543.06 17.9511 1542.98 18.4973L1542.68 20.468L1539.91 25.5952L1538.93 25.4459L1537.78 19.7213L1538.08 17.7506Z" fill="#624455"/>
<g filter="url(#filter37_f_423_23211)">
<path d="M1537.78 19.7245L1542.68 20.4711L1543.93 25.5175L1540.07 31.1736L1537.13 30.7256L1535.11 24.1735L1537.78 19.7245Z" fill="#624455"/>
</g>
<path d="M1594.2 24.6767C1594.27 24.1282 1594.76 23.7366 1595.31 23.802L1598.25 24.1525C1598.8 24.2179 1599.19 24.7156 1599.13 25.2641L1598.89 27.2434L1596.28 32.4581L1595.3 32.3406L1593.97 26.6561L1594.2 24.6767Z" fill="#624455"/>
<g filter="url(#filter38_f_423_23211)">
<path d="M1593.97 26.6568L1598.89 27.2442L1600.3 32.2475L1596.62 38.0258L1593.67 37.6734L1591.44 31.1902L1593.97 26.6568Z" fill="#624455"/>
</g>
<path d="M1655.48 29.488C1655.49 28.9359 1655.95 28.4988 1656.5 28.5118L1659.46 28.5813C1660.01 28.5943 1660.45 29.0524 1660.43 29.6046L1660.39 31.5973L1658.28 37.0369L1657.29 37.0136L1655.43 31.4808L1655.48 29.488Z" fill="#624455"/>
<g filter="url(#filter39_f_423_23211)">
<path d="M1655.43 31.4802L1660.39 31.5968L1662.26 36.4438L1659.14 42.5459L1656.16 42.476L1653.33 36.234L1655.43 31.4802Z" fill="#624455"/>
</g>
<path d="M1716.02 28.2456C1715.97 27.6958 1716.38 27.2078 1716.93 27.1557L1719.87 26.8766C1720.42 26.8245 1720.91 27.228 1720.96 27.7779L1721.15 29.7623L1719.68 35.413L1718.69 35.5066L1716.21 30.2301L1716.02 28.2456Z" fill="#624455"/>
<g filter="url(#filter40_f_423_23211)">
<path d="M1716.21 30.2309L1721.15 29.7631L1723.57 34.3566L1721.18 40.7837L1718.22 41.0644L1714.68 35.1986L1716.21 30.2309Z" fill="#624455"/>
</g>
<path d="M1780.25 22.3702C1780.18 21.8227 1780.56 21.3193 1781.11 21.2458L1784.04 20.8518C1784.59 20.7783 1785.09 21.1625 1785.16 21.71L1785.43 23.6857L1784.18 29.3892L1783.2 29.5213L1780.51 24.3459L1780.25 22.3702Z" fill="#624455"/>
<g filter="url(#filter41_f_423_23211)">
<path d="M1780.51 24.3492L1785.42 23.689L1788.02 28.1844L1785.88 34.6999L1782.93 35.0961L1779.17 29.3728L1780.51 24.3492Z" fill="#624455"/>
</g>
<path d="M1841.09 15.3559C1841.02 14.8077 1841.41 14.3077 1841.96 14.2392L1844.9 13.8717C1845.45 13.8032 1845.94 14.192 1846.01 14.7402L1846.25 16.7178L1844.95 22.4095L1843.97 22.5327L1841.33 17.3335L1841.09 15.3559Z" fill="#624455"/>
<g filter="url(#filter42_f_423_23211)">
<path d="M1841.34 17.3319L1846.26 16.7162L1848.81 21.2346L1846.61 27.7302L1843.65 28.0996L1839.95 22.3429L1841.34 17.3319Z" fill="#624455"/>
</g>
<path d="M1886.1 8.45166C1886.03 7.9045 1886.41 7.39895 1886.96 7.32249L1889.89 6.91268C1890.44 6.83622 1890.94 7.2178 1891.02 7.76496L1891.29 9.73893L1890.07 15.4489L1889.09 15.5862L1886.38 10.4256L1886.1 8.45166Z" fill="#624455"/>
<g filter="url(#filter43_f_423_23211)">
<path d="M1886.37 10.4245L1891.28 9.73784L1893.9 14.219L1891.79 20.7457L1888.84 21.1578L1885.06 15.4551L1886.37 10.4245Z" fill="#624455"/>
</g>
<path d="M1 1.49902C1 1.49902 150.05 27.9719 241.49 28.4387C337.067 28.9265 484.708 1 484.708 1C484.708 1 592.974 24.19 663.464 28.4387C779.736 35.4467 960.482 1 960.482 1C960.482 1 1152.96 38.7396 1276.34 28.4387C1339.48 23.1678 1436.26 1 1436.26 1C1436.26 1 1582.68 28.7424 1677.49 28.4387C1769.7 28.1432 1921 1.49902 1921 1.49902" stroke="#624455"/>
<defs>
<filter id="filter0_f_423_23211" x="42.1484" y="10.8164" width="10.7734" height="13.5273" filterUnits="userSpaceOnUse" color-interpolation-filters="sRGB">
<feFlood flood-opacity="0" result="BackgroundImageFix"/>
<feBlend mode="normal" in="SourceGraphic" in2="BackgroundImageFix" result="shape"/>
<feGaussianBlur stdDeviation="0.5" result="effect1_foregroundBlur_423_23211"/>
</filter>
<filter id="filter1_f_423_23211" x="71.8672" y="15.7461" width="10.8359" height="13.4297" filterUnits="userSpaceOnUse" color-interpolation-filters="sRGB">
<feFlood flood-opacity="0" result="BackgroundImageFix"/>
<feBlend mode="normal" in="SourceGraphic" in2="BackgroundImageFix" result="shape"/>
<feGaussianBlur stdDeviation="0.5" result="effect1_foregroundBlur_423_23211"/>
</filter>
<filter id="filter2_f_423_23211" x="104.672" y="19.6094" width="10.8203" height="13.4648" filterUnits="userSpaceOnUse" color-interpolation-filters="sRGB">
<feFlood flood-opacity="0" result="BackgroundImageFix"/>
<feBlend mode="normal" in="SourceGraphic" in2="BackgroundImageFix" result="shape"/>
<feGaussianBlur stdDeviation="0.5" result="effect1_foregroundBlur_423_23211"/>
</filter>
<filter id="filter3_f_423_23211" x="138.492" y="23.1641" width="10.8828" height="13.3242" filterUnits="userSpaceOnUse" color-interpolation-filters="sRGB">
<feFlood flood-opacity="0" result="BackgroundImageFix"/>
<feBlend mode="normal" in="SourceGraphic" in2="BackgroundImageFix" result="shape"/>
<feGaussianBlur stdDeviation="0.5" result="effect1_foregroundBlur_423_23211"/>
</filter>
<filter id="filter4_f_423_23211" x="169.391" y="26.6758" width="10.8438" height="13.4023" filterUnits="userSpaceOnUse" color-interpolation-filters="sRGB">
<feFlood flood-opacity="0" result="BackgroundImageFix"/>
<feBlend mode="normal" in="SourceGraphic" in2="BackgroundImageFix" result="shape"/>
<feGaussianBlur stdDeviation="0.5" result="effect1_foregroundBlur_423_23211"/>
</filter>
<filter id="filter5_f_423_23211" x="206.445" y="29.4883" width="10.9219" height="13.082" filterUnits="userSpaceOnUse" color-interpolation-filters="sRGB">
<feFlood flood-opacity="0" result="BackgroundImageFix"/>
<feBlend mode="normal" in="SourceGraphic" in2="BackgroundImageFix" result="shape"/>
<feGaussianBlur stdDeviation="0.5" result="effect1_foregroundBlur_423_23211"/>
</filter>
<filter id="filter6_f_423_23211" x="247.609" y="29.8125" width="10.9219" height="13.0234" filterUnits="userSpaceOnUse" color-interpolation-filters="sRGB">
<feFlood flood-opacity="0" result="BackgroundImageFix"/>
<feBlend mode="normal" in="SourceGraphic" in2="BackgroundImageFix" result="shape"/>
<feGaussianBlur stdDeviation="0.5" result="effect1_foregroundBlur_423_23211"/>
</filter>
<filter id="filter7_f_423_23211" x="290.328" y="27.7656" width="10.9141" height="13.1484" filterUnits="userSpaceOnUse" color-interpolation-filters="sRGB">
<feFlood flood-opacity="0" result="BackgroundImageFix"/>
<feBlend mode="normal" in="SourceGraphic" in2="BackgroundImageFix" result="shape"/>
<feGaussianBlur stdDeviation="0.5" result="effect1_foregroundBlur_423_23211"/>
</filter>
<filter id="filter8_f_423_23211" x="343.383" y="22.7344" width="10.8125" height="13.4727" filterUnits="userSpaceOnUse" color-interpolation-filters="sRGB">
<feFlood flood-opacity="0" result="BackgroundImageFix"/>
<feBlend mode="normal" in="SourceGraphic" in2="BackgroundImageFix" result="shape"/>
<feGaussianBlur stdDeviation="0.5" result="effect1_foregroundBlur_423_23211"/>
</filter>
<filter id="filter9_f_423_23211" x="14.1953" y="6.86328" width="10.7891" height="13.5" filterUnits="userSpaceOnUse" color-interpolation-filters="sRGB">
<feFlood flood-opacity="0" result="BackgroundImageFix"/>
<feBlend mode="normal" in="SourceGraphic" in2="BackgroundImageFix" result="shape"/>
<feGaussianBlur stdDeviation="0.5" result="effect1_foregroundBlur_423_23211"/>
</filter>
<filter id="filter10_f_423_23211" x="385.117" y="17.7578" width="10.7891" height="13.5" filterUnits="userSpaceOnUse" color-interpolation-filters="sRGB">
<feFlood flood-opacity="0" result="BackgroundImageFix"/>
<feBlend mode="normal" in="SourceGraphic" in2="BackgroundImageFix" result="shape"/>
<feGaussianBlur stdDeviation="0.5" result="effect1_foregroundBlur_423_23211"/>
</filter>
<filter id="filter11_f_423_23211" x="426.805" y="11.7812" width="10.7891" height="13.5039" filterUnits="userSpaceOnUse" color-interpolation-filters="sRGB">
<feFlood flood-opacity="0" result="BackgroundImageFix"/>
<feBlend mode="normal" in="SourceGraphic" in2="BackgroundImageFix" result="shape"/>
<feGaussianBlur stdDeviation="0.5" result="effect1_foregroundBlur_423_23211"/>
</filter>
<filter id="filter12_f_423_23211" x="465.734" y="4.83984" width="10.7344" height="13.5664" filterUnits="userSpaceOnUse" color-interpolation-filters="sRGB">
<feFlood flood-opacity="0" result="BackgroundImageFix"/>
<feBlend mode="normal" in="SourceGraphic" in2="BackgroundImageFix" result="shape"/>
<feGaussianBlur stdDeviation="0.5" result="effect1_foregroundBlur_423_23211"/>
</filter>
<filter id="filter13_f_423_23211" x="583.109" y="21.7344" width="10.8125" height="13.4648" filterUnits="userSpaceOnUse" color-interpolation-filters="sRGB">
<feFlood flood-opacity="0" result="BackgroundImageFix"/>
<feBlend mode="normal" in="SourceGraphic" in2="BackgroundImageFix" result="shape"/>
<feGaussianBlur stdDeviation="0.5" result="effect1_foregroundBlur_423_23211"/>
</filter>
<filter id="filter14_f_423_23211" x="499.922" y="6.79297" width="10.7812" height="13.5078" filterUnits="userSpaceOnUse" color-interpolation-filters="sRGB">
<feFlood flood-opacity="0" result="BackgroundImageFix"/>
<feBlend mode="normal" in="SourceGraphic" in2="BackgroundImageFix" result="shape"/>
<feGaussianBlur stdDeviation="0.5" result="effect1_foregroundBlur_423_23211"/>
</filter>
<filter id="filter15_f_423_23211" x="546.398" y="15.7383" width="10.8203" height="13.4648" filterUnits="userSpaceOnUse" color-interpolation-filters="sRGB">
<feFlood flood-opacity="0" result="BackgroundImageFix"/>
<feBlend mode="normal" in="SourceGraphic" in2="BackgroundImageFix" result="shape"/>
<feGaussianBlur stdDeviation="0.5" result="effect1_foregroundBlur_423_23211"/>
</filter>
<filter id="filter16_f_423_23211" x="623.703" y="26.7539" width="10.8594" height="13.3789" filterUnits="userSpaceOnUse" color-interpolation-filters="sRGB">
<feFlood flood-opacity="0" result="BackgroundImageFix"/>
<feBlend mode="normal" in="SourceGraphic" in2="BackgroundImageFix" result="shape"/>
<feGaussianBlur stdDeviation="0.5" result="effect1_foregroundBlur_423_23211"/>
</filter>
<filter id="filter17_f_423_23211" x="663.867" y="30.5625" width="10.9062" height="13.2148" filterUnits="userSpaceOnUse" color-interpolation-filters="sRGB">
<feFlood flood-opacity="0" result="BackgroundImageFix"/>
<feBlend mode="normal" in="SourceGraphic" in2="BackgroundImageFix" result="shape"/>
<feGaussianBlur stdDeviation="0.5" result="effect1_foregroundBlur_423_23211"/>
</filter>
<filter id="filter18_f_423_23211" x="713.289" y="30.4961" width="10.9219" height="13.0977" filterUnits="userSpaceOnUse" color-interpolation-filters="sRGB">
<feFlood flood-opacity="0" result="BackgroundImageFix"/>
<feBlend mode="normal" in="SourceGraphic" in2="BackgroundImageFix" result="shape"/>
<feGaussianBlur stdDeviation="0.5" result="effect1_foregroundBlur_423_23211"/>
</filter>
<filter id="filter19_f_423_23211" x="753.156" y="28.543" width="10.9062" height="13.1875" filterUnits="userSpaceOnUse" color-interpolation-filters="sRGB">
<feFlood flood-opacity="0" result="BackgroundImageFix"/>
<feBlend mode="normal" in="SourceGraphic" in2="BackgroundImageFix" result="shape"/>
<feGaussianBlur stdDeviation="0.5" result="effect1_foregroundBlur_423_23211"/>
</filter>
<filter id="filter20_f_423_23211" x="795.359" y="25.6797" width="10.8516" height="13.3984" filterUnits="userSpaceOnUse" color-interpolation-filters="sRGB">
<feFlood flood-opacity="0" result="BackgroundImageFix"/>
<feBlend mode="normal" in="SourceGraphic" in2="BackgroundImageFix" result="shape"/>
<feGaussianBlur stdDeviation="0.5" result="effect1_foregroundBlur_423_23211"/>
</filter>
<filter id="filter21_f_423_23211" x="842.086" y="19.7148" width="10.8359" height="13.4375" filterUnits="userSpaceOnUse" color-interpolation-filters="sRGB">
<feFlood flood-opacity="0" result="BackgroundImageFix"/>
<feBlend mode="normal" in="SourceGraphic" in2="BackgroundImageFix" result="shape"/>
<feGaussianBlur stdDeviation="0.5" result="effect1_foregroundBlur_423_23211"/>
</filter>
<filter id="filter22_f_423_23211" x="890.664" y="13.7227" width="10.8359" height="13.4336" filterUnits="userSpaceOnUse" color-interpolation-filters="sRGB">
<feFlood flood-opacity="0" result="BackgroundImageFix"/>
<feBlend mode="normal" in="SourceGraphic" in2="BackgroundImageFix" result="shape"/>
<feGaussianBlur stdDeviation="0.5" result="effect1_foregroundBlur_423_23211"/>
</filter>
<filter id="filter23_f_423_23211" x="931.578" y="6.79297" width="10.7891" height="13.5039" filterUnits="userSpaceOnUse" color-interpolation-filters="sRGB">
<feFlood flood-opacity="0" result="BackgroundImageFix"/>
<feBlend mode="normal" in="SourceGraphic" in2="BackgroundImageFix" result="shape"/>
<feGaussianBlur stdDeviation="0.5" result="effect1_foregroundBlur_423_23211"/>
</filter>
<filter id="filter24_f_423_23211" x="969.672" y="4.9375" width="10.5547" height="13.6602" filterUnits="userSpaceOnUse" color-interpolation-filters="sRGB">
<feFlood flood-opacity="0" result="BackgroundImageFix"/>
<feBlend mode="normal" in="SourceGraphic" in2="BackgroundImageFix" result="shape"/>
<feGaussianBlur stdDeviation="0.5" result="effect1_foregroundBlur_423_23211"/>
</filter>
<filter id="filter25_f_423_23211" x="1002.49" y="10.7305" width="10.8359" height="13.4258" filterUnits="userSpaceOnUse" color-interpolation-filters="sRGB">
<feFlood flood-opacity="0" result="BackgroundImageFix"/>
<feBlend mode="normal" in="SourceGraphic" in2="BackgroundImageFix" result="shape"/>
<feGaussianBlur stdDeviation="0.5" result="effect1_foregroundBlur_423_23211"/>
</filter>
<filter id="filter26_f_423_23211" x="1034.78" y="15.9727" width="10.8125" height="13.4688" filterUnits="userSpaceOnUse" color-interpolation-filters="sRGB">
<feFlood flood-opacity="0" result="BackgroundImageFix"/>
<feBlend mode="normal" in="SourceGraphic" in2="BackgroundImageFix" result="shape"/>
<feGaussianBlur stdDeviation="0.5" result="effect1_foregroundBlur_423_23211"/>
</filter>
<filter id="filter27_f_423_23211" x="1082.53" y="22.6211" width="10.8906" height="13.3008" filterUnits="userSpaceOnUse" color-interpolation-filters="sRGB">
<feFlood flood-opacity="0" result="BackgroundImageFix"/>
<feBlend mode="normal" in="SourceGraphic" in2="BackgroundImageFix" result="shape"/>
<feGaussianBlur stdDeviation="0.5" result="effect1_foregroundBlur_423_23211"/>
</filter>
<filter id="filter28_f_423_23211" x="1122.04" y="26.5703" width="10.9062" height="13.2148" filterUnits="userSpaceOnUse" color-interpolation-filters="sRGB">
<feFlood flood-opacity="0" result="BackgroundImageFix"/>
<feBlend mode="normal" in="SourceGraphic" in2="BackgroundImageFix" result="shape"/>
<feGaussianBlur stdDeviation="0.5" result="effect1_foregroundBlur_423_23211"/>
</filter>
<filter id="filter29_f_423_23211" x="1167.25" y="30.3242" width="10.9141" height="13.1875" filterUnits="userSpaceOnUse" color-interpolation-filters="sRGB">
<feFlood flood-opacity="0" result="BackgroundImageFix"/>
<feBlend mode="normal" in="SourceGraphic" in2="BackgroundImageFix" result="shape"/>
<feGaussianBlur stdDeviation="0.5" result="effect1_foregroundBlur_423_23211"/>
</filter>
<filter id="filter30_f_423_23211" x="1208.24" y="31.6328" width="10.9297" height="12.9883" filterUnits="userSpaceOnUse" color-interpolation-filters="sRGB">
<feFlood flood-opacity="0" result="BackgroundImageFix"/>
<feBlend mode="normal" in="SourceGraphic" in2="BackgroundImageFix" result="shape"/>
<feGaussianBlur stdDeviation="0.5" result="effect1_foregroundBlur_423_23211"/>
</filter>
<filter id="filter31_f_423_23211" x="1248.95" y="31.5234" width="10.9141" height="13.1602" filterUnits="userSpaceOnUse" color-interpolation-filters="sRGB">
<feFlood flood-opacity="0" result="BackgroundImageFix"/>
<feBlend mode="normal" in="SourceGraphic" in2="BackgroundImageFix" result="shape"/>
<feGaussianBlur stdDeviation="0.5" result="effect1_foregroundBlur_423_23211"/>
</filter>
<filter id="filter32_f_423_23211" x="1291.07" y="27.6406" width="10.8672" height="13.3438" filterUnits="userSpaceOnUse" color-interpolation-filters="sRGB">
<feFlood flood-opacity="0" result="BackgroundImageFix"/>
<feBlend mode="normal" in="SourceGraphic" in2="BackgroundImageFix" result="shape"/>
<feGaussianBlur stdDeviation="0.5" result="effect1_foregroundBlur_423_23211"/>
</filter>
<filter id="filter33_f_423_23211" x="1331.81" y="21.8516" width="10.6406" height="13.625" filterUnits="userSpaceOnUse" color-interpolation-filters="sRGB">
<feFlood flood-opacity="0" result="BackgroundImageFix"/>
<feBlend mode="normal" in="SourceGraphic" in2="BackgroundImageFix" result="shape"/>
<feGaussianBlur stdDeviation="0.5" result="effect1_foregroundBlur_423_23211"/>
</filter>
<filter id="filter34_f_423_23211" x="1390.98" y="10.8203" width="10.7344" height="13.5625" filterUnits="userSpaceOnUse" color-interpolation-filters="sRGB">
<feFlood flood-opacity="0" result="BackgroundImageFix"/>
<feBlend mode="normal" in="SourceGraphic" in2="BackgroundImageFix" result="shape"/>
<feGaussianBlur stdDeviation="0.5" result="effect1_foregroundBlur_423_23211"/>
</filter>
<filter id="filter35_f_423_23211" x="1441.45" y="4.32031" width="10.7344" height="13.5586" filterUnits="userSpaceOnUse" color-interpolation-filters="sRGB">
<feFlood flood-opacity="0" result="BackgroundImageFix"/>
<feBlend mode="normal" in="SourceGraphic" in2="BackgroundImageFix" result="shape"/>
<feGaussianBlur stdDeviation="0.5" result="effect1_foregroundBlur_423_23211"/>
</filter>
<filter id="filter36_f_423_23211" x="1483.52" y="11.7383" width="10.8281" height="13.4492" filterUnits="userSpaceOnUse" color-interpolation-filters="sRGB">
<feFlood flood-opacity="0" result="BackgroundImageFix"/>
<feBlend mode="normal" in="SourceGraphic" in2="BackgroundImageFix" result="shape"/>
<feGaussianBlur stdDeviation="0.5" result="effect1_foregroundBlur_423_23211"/>
</filter>
<filter id="filter37_f_423_23211" x="1534.11" y="18.7227" width="10.8203" height="13.4492" filterUnits="userSpaceOnUse" color-interpolation-filters="sRGB">
<feFlood flood-opacity="0" result="BackgroundImageFix"/>
<feBlend mode="normal" in="SourceGraphic" in2="BackgroundImageFix" result="shape"/>
<feGaussianBlur stdDeviation="0.5" result="effect1_foregroundBlur_423_23211"/>
</filter>
<filter id="filter38_f_423_23211" x="1590.44" y="25.6562" width="10.8672" height="13.3711" filterUnits="userSpaceOnUse" color-interpolation-filters="sRGB">
<feFlood flood-opacity="0" result="BackgroundImageFix"/>
<feBlend mode="normal" in="SourceGraphic" in2="BackgroundImageFix" result="shape"/>
<feGaussianBlur stdDeviation="0.5" result="effect1_foregroundBlur_423_23211"/>
</filter>
<filter id="filter39_f_423_23211" x="1652.34" y="30.4805" width="10.9219" height="13.0664" filterUnits="userSpaceOnUse" color-interpolation-filters="sRGB">
<feFlood flood-opacity="0" result="BackgroundImageFix"/>
<feBlend mode="normal" in="SourceGraphic" in2="BackgroundImageFix" result="shape"/>
<feGaussianBlur stdDeviation="0.5" result="effect1_foregroundBlur_423_23211"/>
</filter>
<filter id="filter40_f_423_23211" x="1713.68" y="28.7617" width="10.8906" height="13.3008" filterUnits="userSpaceOnUse" color-interpolation-filters="sRGB">
<feFlood flood-opacity="0" result="BackgroundImageFix"/>
<feBlend mode="normal" in="SourceGraphic" in2="BackgroundImageFix" result="shape"/>
<feGaussianBlur stdDeviation="0.5" result="effect1_foregroundBlur_423_23211"/>
</filter>
<filter id="filter41_f_423_23211" x="1778.17" y="22.6875" width="10.8438" height="13.4102" filterUnits="userSpaceOnUse" color-interpolation-filters="sRGB">
<feFlood flood-opacity="0" result="BackgroundImageFix"/>
<feBlend mode="normal" in="SourceGraphic" in2="BackgroundImageFix" result="shape"/>
<feGaussianBlur stdDeviation="0.5" result="effect1_foregroundBlur_423_23211"/>
</filter>
<filter id="filter42_f_423_23211" x="1838.95" y="15.7148" width="10.8594" height="13.3828" filterUnits="userSpaceOnUse" color-interpolation-filters="sRGB">
<feFlood flood-opacity="0" result="BackgroundImageFix"/>
<feBlend mode="normal" in="SourceGraphic" in2="BackgroundImageFix" result="shape"/>
<feGaussianBlur stdDeviation="0.5" result="effect1_foregroundBlur_423_23211"/>
</filter>
<filter id="filter43_f_423_23211" x="1884.06" y="8.73828" width="10.8359" height="13.418" filterUnits="userSpaceOnUse" color-interpolation-filters="sRGB">
<feFlood flood-opacity="0" result="BackgroundImageFix"/>
<feBlend mode="normal" in="SourceGraphic" in2="BackgroundImageFix" result="shape"/>
<feGaussianBlur stdDeviation="0.5" result="effect1_foregroundBlur_423_23211"/>
</filter>
</defs>
</svg>
