<svg width="34" height="34" viewBox="0 0 34 34" fill="none" xmlns="http://www.w3.org/2000/svg">
<path d="M27.2938 1.10637C27.6881 0.719703 28.3212 0.72602 28.7077 1.12048L30.2219 2.66565L31.7362 4.21082C32.1227 4.60527 32.1164 5.2385 31.722 5.62516L5.14151 31.6879C4.74717 32.0746 4.11412 32.0682 3.72757 31.6738L0.699143 28.5834C0.312591 28.189 0.318909 27.5558 0.713255 27.1691L27.2938 1.10637Z" fill="#F3F3F3"/>
<path d="M27.1043 1.29215C27.6033 0.802883 28.3382 0.743439 28.7459 1.15938L30.2219 2.66565L31.698 4.17191C32.1056 4.58785 32.0316 5.32167 31.5326 5.81094L5.33099 31.5021C4.832 31.9914 4.09705 32.0508 3.68944 31.6349L0.737271 28.6223C0.329661 28.2064 0.403739 27.4726 0.90273 26.9833L27.1043 1.29215Z" fill="#F3F3F3"/>
<path d="M32.1965 27.2831C32.5766 27.671 32.5777 28.2914 32.1991 28.6807L30.7878 30.1314L29.2401 31.649C28.8469 32.0345 28.2161 32.0295 27.8291 31.6379L1.64998 5.14544C1.26064 4.75144 1.26566 4.11593 1.66117 3.72813L4.74764 0.701777C5.14199 0.315112 5.77503 0.321429 6.16159 0.715885L32.1965 27.2831Z" fill="#F3F3F3"/>
</svg>
