<svg width="57" height="47" viewBox="0 0 57 47" fill="none" xmlns="http://www.w3.org/2000/svg">
<path d="M4 1H52.16C53.8169 1 55.16 2.34315 55.16 4V30.56C55.16 32.2169 53.8169 33.56 52.16 33.56H17.8842C17.5699 33.56 17.2693 33.6886 17.0523 33.916L9.20336 42.1387C8.58044 42.7913 7.48 42.3504 7.48 41.4482V34.71C7.48 34.0749 6.96512 33.56 6.33 33.56H4C2.34315 33.56 1 32.2169 1 30.56V4C1 2.34315 2.34315 1 4 1Z" fill="#F3F3F3" stroke="#624455" stroke-width="2"/>
<rect x="16.5586" y="15.8398" width="3.6" height="3.6" rx="1.8" fill="#624455"/>
<rect x="36.7188" y="15.8398" width="3.6" height="3.6" rx="1.8" fill="#624455"/>
<rect x="26.6406" y="15.8398" width="3.6" height="3.6" rx="1.8" fill="#624455"/>
</svg>
