<svg width="22" height="20" viewBox="0 0 22 20" fill="none" xmlns="http://www.w3.org/2000/svg">
<rect width="22" height="20" rx="1" fill="#F3F3F3"/>
<path d="M13.0772 16.4854C15.0384 14.9779 17.8684 12.6178 19.0478 10.7302C19.9302 9.32005 20.2173 7.57297 19.8335 5.94857C19.0134 2.24832 14.4723 0.73631 11.6437 3.21599C11.4846 3.35453 11.3379 3.50812 11.1874 3.66582C11.126 3.73018 11.0639 3.79522 11 3.86021C10.9361 3.79522 10.874 3.73017 10.8126 3.66581C10.6621 3.50812 10.5154 3.35453 10.3563 3.21599C7.52768 0.73631 2.98657 2.24832 2.1665 5.94857C1.78267 7.57297 2.06977 9.32005 2.95224 10.7302C4.13158 12.6178 6.96165 14.9779 8.92277 16.4854C9.46921 16.9056 11 18 11 18C11 18 12.5308 16.9056 13.0772 16.4854Z" fill="#624455"/>
</svg>
